<svg width="20.666626" height="20.666672" viewBox="0 0 20.6666 20.6667" fill="none" xmlns="http://www.w3.org/2000/svg" xmlns:xlink="http://www.w3.org/1999/xlink">
	<desc>
			Created with Pixso.
	</desc>
	<defs/>
	<path id="Vector" d="M13 1L13 3.66C13 4.4 12.4 5 11.66 5L10.33 5C9.59 5 9 5.59 9 6.33C9 7.06 8.4 7.66 7.66 7.66L6.33 7.66L6.33 9L5.94 9.39C5.42 9.91 4.57 9.91 4.05 9.39L1.66 7M9 19.66L9 17.66L7.66 16.33L7.66 14.33L6.33 13L6.33 11.66L11.66 11.66C12.4 11.66 13 12.26 13 13L13 13.88C13 14.13 13.19 14.33 13.44 14.33C13.93 14.33 14.33 14.73 14.33 15.22C14.33 15.46 14.53 15.66 14.77 15.66L18.33 15.66M1 10.33C1 5.17 5.17 1 10.33 1C15.48 1 19.66 5.17 19.66 10.33C19.66 15.48 15.48 19.66 10.33 19.66C5.17 19.66 1 15.48 1 10.33Z" stroke="#8996B8" stroke-opacity="0.600000" stroke-width="2.000000"/>
</svg>
