<svg width="20.666626" height="20.654541" viewBox="0 0 20.6666 20.6545" fill="none" xmlns="http://www.w3.org/2000/svg" xmlns:xlink="http://www.w3.org/1999/xlink">
	<desc>
			Created with Pixso.
	</desc>
	<defs/>
	<path id="Vector" d="M8.14 1.58L7.7 3.71C7 3.98 6.36 4.36 5.79 4.81L3.64 4.09L3.07 3.91L2.77 4.42L1.29 6.89L1 7.41L1.43 7.79L3.09 9.2C3.03 9.57 2.95 9.93 2.95 10.32C2.95 10.71 3.03 11.08 3.09 11.44L1.43 12.86L1 13.24L1.29 13.75L2.77 16.22L3.07 16.74L3.64 16.56L5.79 15.84C6.36 16.29 7 16.67 7.7 16.94L8.14 19.07L8.25 19.65L12.4 19.65L12.52 19.07L12.96 16.94C13.66 16.67 14.29 16.29 14.87 15.84L17.01 16.56L17.59 16.74L17.89 16.22L19.36 13.75L19.66 13.24L19.22 12.86L17.56 11.44C17.63 11.08 17.7 10.71 17.7 10.32C17.7 9.93 17.63 9.57 17.56 9.2L19.22 7.79L19.66 7.41L19.36 6.89L17.89 4.42L17.59 3.91L17.01 4.09L14.87 4.81C14.29 4.36 13.66 3.98 12.96 3.71L12.52 1.58L12.4 1L8.25 1L8.14 1.58ZM10.33 12.99C8.86 12.99 7.66 11.79 7.66 10.32C7.66 8.85 8.86 7.66 10.33 7.66C11.8 7.66 12.99 8.85 12.99 10.32C12.99 11.79 11.8 12.99 10.33 12.99Z" stroke="#8996B8" stroke-opacity="0.600000" stroke-width="2.000000" stroke-linejoin="round"/>
</svg>
